<svg width="29" height="25" viewBox="0 0 29 25" fill="none" xmlns="http://www.w3.org/2000/svg">
<path d="M14.5213 0C11.2591 0 8.60092 1.29834 8.60092 2.89003C8.60092 4.48185 11.2591 5.77815 14.5213 5.77815C17.7833 5.77815 20.4415 4.48185 20.4415 2.89003C20.4415 1.29822 17.7833 0 14.5213 0ZM14.5213 0.792617C16.9183 0.792617 18.817 1.72031 18.817 2.89003C18.817 4.05976 16.9183 5.01185 14.5213 5.01185C12.1241 5.01185 10.173 4.05976 10.173 2.89003C10.173 1.72043 12.1241 0.792498 14.5213 0.792617ZM4.10124 1.68053C3.30911 1.6749 2.173 2.5533 1.57025 3.93503C-1.01996 9.87182 0.996997 25.452 6.82689 24.9899C5.51073 21.9695 4.20677 18.5304 3.43389 14.8953C5.00938 19.2319 7.76068 23.0057 10.4834 22.0848C8.56814 19.681 6.5324 16.8646 5.09767 13.6895C7.19233 17.2294 10.2045 20.0217 12.4573 18.8042C10.6782 17.214 8.77434 15.3631 7.1446 13.2259C9.51629 15.462 12.3545 16.8953 13.8594 15.4842C11.0066 14.2237 8.21418 12.2736 6.37818 10.1153C5.40239 8.96818 4.69155 7.75897 4.42086 6.52608C4.28567 5.90957 4.27083 5.28206 4.39287 4.67536C4.39406 4.66968 4.39544 4.66424 4.39664 4.65862C4.39706 4.65598 4.39795 4.65365 4.39843 4.65108C4.6407 3.379 5.29831 2.53267 4.66762 1.90114C4.51903 1.75237 4.32306 1.6822 4.10113 1.68059L4.10124 1.68053ZM24.8982 1.68053C24.6763 1.68214 24.4822 1.75231 24.3336 1.90114C23.8445 2.39083 24.1293 3.01165 24.3952 3.85846C24.7633 4.70713 24.8226 5.6271 24.6252 6.52602C24.3546 7.75891 23.6418 8.96812 22.6661 10.1152C20.8238 12.2811 18.0199 14.2373 15.1569 15.4971C16.6656 16.8854 19.4928 15.4547 21.8568 13.2258C20.227 15.363 18.3232 17.214 16.5439 18.804C18.7968 20.0216 21.809 17.2293 23.9038 13.6895C22.469 16.8646 20.4332 19.6809 18.518 22.0848C21.2407 23.0058 23.9903 19.232 25.5657 14.8953C24.7929 18.5304 23.4908 21.9696 22.1746 24.9899C28.0045 25.4521 30.0195 9.87188 27.4294 3.93503C26.8266 2.55336 25.6905 1.67502 24.8983 1.68065L24.8982 1.68053ZM23.569 6.10543C17.5632 10.1868 11.5611 11.0383 5.54818 6.43252C5.78865 7.36901 6.37908 8.39062 7.23068 9.39183C8.9608 11.4257 11.7459 13.3626 14.5231 14.5549C17.3003 13.3626 20.0854 11.4257 21.8156 9.39183C22.7117 8.33821 23.3193 7.26259 23.5336 6.28674C23.5469 6.22572 23.5585 6.16549 23.5691 6.10537L23.569 6.10543Z" fill="#24276A"/>
</svg>
