<svg width="29" height="25" viewBox="0 0 29 25" fill="none" xmlns="http://www.w3.org/2000/svg">
<path d="M14.3486 0C6.70975 0 0.459747 5 0.459747 11.1111C0.459747 14.0278 1.84864 16.8056 4.34864 18.75C4.34864 19.5833 3.79308 21.8056 0.459747 25C0.459747 25 5.32086 25 9.48753 21.5278C11.0153 21.9444 12.682 22.2222 14.3486 22.2222C21.9875 22.2222 28.2375 17.2222 28.2375 11.1111C28.2375 5 21.9875 0 14.3486 0ZM15.7375 16.6667H12.9597V13.8889H15.7375V16.6667ZM18.2375 9.72222C17.8209 10.2778 17.2653 10.5556 16.7097 10.8333C16.2931 11.1111 16.1542 11.25 16.0153 11.5278C15.7375 11.8056 15.7375 12.0833 15.7375 12.5H12.9597C12.9597 11.8056 13.0986 11.3889 13.3764 10.9722C13.6542 10.6944 14.2097 10.2778 14.9042 9.86111C15.3209 9.72222 15.5986 9.44444 15.7375 9.16667C15.8764 8.88889 16.0153 8.47222 16.0153 8.19444C16.0153 7.77778 15.8764 7.5 15.5986 7.22222C15.3209 6.94444 14.9042 6.80556 14.4875 6.80556C14.0709 6.80556 13.7931 6.94444 13.5153 7.08333C13.2375 7.22222 13.0986 7.5 13.0986 7.91667H10.3209C10.4597 6.94444 10.8764 6.11111 11.5709 5.55556C12.2653 5 13.2375 4.86111 14.4875 4.86111C15.7375 4.86111 16.8486 5.13889 17.5431 5.69444C18.2375 6.25 18.6542 7.08333 18.6542 8.05556C18.7931 8.61111 18.6542 9.16667 18.2375 9.72222Z" fill="#24276A"/>
</svg>
