<svg width="26" height="25" viewBox="0 0 26 25" fill="none" xmlns="http://www.w3.org/2000/svg">
<path d="M25.4597 19.6429V25H0.459747V19.6429C0.878274 19.6429 1.27355 19.5778 1.64557 19.4475C2.0176 19.3173 2.29196 19.1895 2.46868 19.0639C2.64539 18.9383 2.86395 18.7639 3.12437 18.5407C3.40339 18.2896 3.64288 18.1129 3.84284 18.0106C4.0428 17.9083 4.30554 17.8571 4.63106 17.8571C4.85428 17.8571 5.05889 17.8897 5.2449 17.9548C5.43092 18.0199 5.57507 18.0897 5.67738 18.1641C5.77969 18.2385 5.93315 18.364 6.13776 18.5407C6.40748 18.7733 6.62604 18.95 6.79345 19.0709C6.96086 19.1918 7.23058 19.3173 7.6026 19.4475C7.97463 19.5778 8.37455 19.6429 8.80238 19.6429C9.22091 19.6429 9.61618 19.5754 9.98821 19.4406C10.3602 19.3057 10.6299 19.1802 10.7974 19.0639C10.9648 18.9476 11.188 18.7733 11.467 18.5407C11.6623 18.364 11.8134 18.2385 11.9204 18.1641C12.0274 18.0897 12.1715 18.0199 12.3529 17.9548C12.5342 17.8897 12.7365 17.8571 12.9597 17.8571C13.2853 17.8571 13.548 17.9083 13.748 18.0106C13.9479 18.1129 14.1874 18.2896 14.4664 18.5407C14.7269 18.7639 14.9454 18.9383 15.1221 19.0639C15.2988 19.1895 15.5732 19.3173 15.9452 19.4475C16.3173 19.5778 16.7125 19.6429 17.1311 19.6429C17.5496 19.6429 17.9449 19.5778 18.3169 19.4475C18.6889 19.3173 18.9633 19.1895 19.14 19.0639C19.3167 18.9383 19.5353 18.7639 19.7957 18.5407C20.0747 18.2896 20.3142 18.1129 20.5142 18.0106C20.7141 17.9083 20.9769 17.8571 21.3024 17.8571C21.6186 17.8571 21.8767 17.9083 22.0767 18.0106C22.2766 18.1129 22.5161 18.2896 22.7951 18.5407C23.0555 18.7639 23.2741 18.9383 23.4508 19.0639C23.6275 19.1895 23.9019 19.3173 24.2739 19.4475C24.6459 19.5778 25.0412 19.6429 25.4597 19.6429ZM25.4597 15.1786V17.8571C25.2365 17.8571 25.0319 17.8246 24.8459 17.7595C24.6599 17.6944 24.5157 17.6246 24.4134 17.5502C24.3111 17.4758 24.1577 17.3503 23.953 17.1735C23.6833 16.941 23.4648 16.7643 23.2974 16.6434C23.1299 16.5225 22.8602 16.3969 22.4882 16.2667C22.1162 16.1365 21.7209 16.0714 21.3024 16.0714C20.8746 16.0714 20.4746 16.1365 20.1026 16.2667C19.7306 16.3969 19.4609 16.5225 19.2935 16.6434C19.126 16.7643 18.9075 16.941 18.6378 17.1735C18.4331 17.3503 18.2797 17.4758 18.1774 17.5502C18.0751 17.6246 17.9309 17.6944 17.7449 17.7595C17.5589 17.8246 17.3543 17.8571 17.1311 17.8571C16.8055 17.8571 16.5428 17.806 16.3428 17.7037C16.1429 17.6014 15.9034 17.4247 15.6244 17.1735C15.3546 16.941 15.1361 16.7643 14.9687 16.6434C14.8013 16.5225 14.5315 16.3969 14.1595 16.2667C13.7875 16.1365 13.3876 16.0714 12.9597 16.0714C12.5412 16.0714 12.1459 16.1389 11.7739 16.2737C11.4019 16.4086 11.1322 16.5341 10.9648 16.6504C10.7974 16.7666 10.5741 16.941 10.2951 17.1735C10.0998 17.3503 9.94868 17.4758 9.84172 17.5502C9.73477 17.6246 9.59061 17.6944 9.40924 17.7595C9.22788 17.8246 9.0256 17.8571 8.80238 17.8571C8.47686 17.8571 8.21412 17.806 8.01415 17.7037C7.81419 17.6014 7.5747 17.4247 7.29568 17.1735C7.03527 16.9503 6.8167 16.7759 6.63999 16.6504C6.46328 16.5248 6.18891 16.3969 5.81689 16.2667C5.44487 16.1365 5.04959 16.0714 4.63106 16.0714C4.20324 16.0714 3.80331 16.1365 3.43129 16.2667C3.05926 16.3969 2.78955 16.5225 2.62214 16.6434C2.45472 16.7643 2.23616 16.941 1.96644 17.1735C1.68743 17.4247 1.44794 17.6014 1.24797 17.7037C1.04801 17.806 0.785268 17.8571 0.459747 17.8571V15.1786C0.459747 14.4345 0.720164 13.8021 1.241 13.2812C1.76183 12.7604 2.39427 12.5 3.13832 12.5H4.03118V6.25H7.6026V12.5H11.174V6.25H14.7455V12.5H18.3169V6.25H21.8883V12.5H22.7812C23.5252 12.5 24.1577 12.7604 24.6785 13.2812C25.1993 13.8021 25.4597 14.4345 25.4597 15.1786ZM7.6026 3.125C7.6026 3.84115 7.43519 4.39221 7.10037 4.77818C6.76555 5.16416 6.33772 5.35714 5.81689 5.35714C5.32396 5.35714 4.90311 5.18276 4.55433 4.83398C4.20556 4.48521 4.03118 4.06436 4.03118 3.57143C4.03118 3.30171 4.07535 3.06455 4.16371 2.85993C4.25206 2.65532 4.36135 2.49721 4.49156 2.3856C4.62176 2.274 4.76592 2.14379 4.92403 1.99498C5.08214 1.84617 5.2263 1.69968 5.35651 1.55552C5.48672 1.41137 5.596 1.20443 5.68436 0.93471C5.77271 0.664993 5.81689 0.353423 5.81689 0C6.17031 0 6.55629 0.344122 6.97481 1.03237C7.39334 1.72061 7.6026 2.41815 7.6026 3.125ZM14.7455 3.125C14.7455 3.84115 14.5781 4.39221 14.2432 4.77818C13.9084 5.16416 13.4806 5.35714 12.9597 5.35714C12.4668 5.35714 12.046 5.18276 11.6972 4.83398C11.3484 4.48521 11.174 4.06436 11.174 3.57143C11.174 3.30171 11.2182 3.06455 11.3066 2.85993C11.3949 2.65532 11.5042 2.49721 11.6344 2.3856C11.7646 2.274 11.9088 2.14379 12.0669 1.99498C12.225 1.84617 12.3692 1.69968 12.4994 1.55552C12.6296 1.41137 12.7389 1.20443 12.8272 0.93471C12.9156 0.664993 12.9597 0.353423 12.9597 0C13.3132 0 13.6991 0.344122 14.1177 1.03237C14.5362 1.72061 14.7455 2.41815 14.7455 3.125ZM21.8883 3.125C21.8883 3.84115 21.7209 4.39221 21.3861 4.77818C21.0513 5.16416 20.6234 5.35714 20.1026 5.35714C19.6097 5.35714 19.1888 5.18276 18.84 4.83398C18.4913 4.48521 18.3169 4.06436 18.3169 3.57143C18.3169 3.30171 18.3611 3.06455 18.4494 2.85993C18.5378 2.65532 18.6471 2.49721 18.7773 2.3856C18.9075 2.274 19.0516 2.14379 19.2097 1.99498C19.3679 1.84617 19.512 1.69968 19.6422 1.55552C19.7724 1.41137 19.8817 1.20443 19.9701 0.93471C20.0584 0.664993 20.1026 0.353423 20.1026 0C20.456 0 20.842 0.344122 21.2605 1.03237C21.6791 1.72061 21.8883 2.41815 21.8883 3.125Z" fill="#24276A"/>
</svg>
