<svg width="23" height="25" viewBox="0 0 23 25" fill="none" xmlns="http://www.w3.org/2000/svg">
<path d="M20.4597 22.5H2.95975V8.75H20.4597M20.4597 2.5H19.2097V0H16.7097V2.5H6.70975V0H4.20975V2.5H2.95975C2.29671 2.5 1.66082 2.76339 1.19198 3.23223C0.723139 3.70107 0.459747 4.33696 0.459747 5V22.5C0.459747 23.163 0.723139 23.7989 1.19198 24.2678C1.66082 24.7366 2.29671 25 2.95975 25H20.4597C21.1228 25 21.7587 24.7366 22.2275 24.2678C22.6964 23.7989 22.9597 23.163 22.9597 22.5V5C22.9597 4.33696 22.6964 3.70107 22.2275 3.23223C21.7587 2.76339 21.1228 2.5 20.4597 2.5ZM17.3722 12.575L16.0472 11.25L9.94725 17.35L7.29725 14.7L5.97225 16.025L9.94725 20L17.3722 12.575Z" fill="#24276A"/>
</svg>
