<svg width="23" height="25" viewBox="0 0 23 25" fill="none" xmlns="http://www.w3.org/2000/svg">
<path d="M20.4597 22.5H2.95975V8.75H20.4597M16.7097 0V2.5H6.70975V0H4.20975V2.5H2.95975C1.58475 2.5 0.459747 3.625 0.459747 5V22.5C0.459747 23.163 0.723139 23.7989 1.19198 24.2678C1.66082 24.7366 2.29671 25 2.95975 25H20.4597C21.8472 25 22.9597 23.8875 22.9597 22.5V5C22.9597 4.33696 22.6964 3.70107 22.2275 3.23223C21.7587 2.76339 21.1228 2.5 20.4597 2.5H19.2097V0M10.3097 13.75H5.79725L9.44725 16.3875L8.05975 20.7L11.7097 18.0375L15.3597 20.7L13.9597 16.4L17.6097 13.75H13.1097L11.7097 9.45L10.3097 13.75Z" fill="#24276A"/>
</svg>
