<svg width="21" height="25" viewBox="0 0 21 25" fill="none" xmlns="http://www.w3.org/2000/svg">
<path d="M2.95975 25C2.27225 25 1.68391 24.7554 1.19475 24.2663C0.704747 23.7763 0.459747 23.1875 0.459747 22.5V2.5C0.459747 1.8125 0.704747 1.22375 1.19475 0.73375C1.68391 0.244583 2.27225 0 2.95975 0H17.9597C18.6472 0 19.236 0.244583 19.726 0.73375C20.2152 1.22375 20.4597 1.8125 20.4597 2.5V22.5C20.4597 23.1875 20.2152 23.7763 19.726 24.2663C19.236 24.7554 18.6472 25 17.9597 25H2.95975ZM9.20975 11.25L12.3347 9.375L15.4597 11.25V2.5H9.20975V11.25Z" fill="#24276A"/>
</svg>
