<svg width="26" height="25" viewBox="0 0 26 25" fill="none" xmlns="http://www.w3.org/2000/svg">
<path fill-rule="evenodd" clip-rule="evenodd" d="M12.9597 23.6111C19.0966 23.6111 24.0709 18.6368 24.0709 12.5C24.0709 6.36319 19.0966 1.38889 12.9597 1.38889C6.82294 1.38889 1.84864 6.36319 1.84864 12.5C1.84864 18.6368 6.82294 23.6111 12.9597 23.6111ZM12.9597 25C19.8632 25 25.4597 19.4035 25.4597 12.5C25.4597 5.59653 19.8632 0 12.9597 0C6.05627 0 0.459747 5.59653 0.459747 12.5C0.459747 19.4035 6.05627 25 12.9597 25Z" fill="#24276A"/>
<path fill-rule="evenodd" clip-rule="evenodd" d="M11.075 10.5896C11.1493 10.866 11.1764 11.1694 11.0861 11.418C11.0686 11.4662 11.0406 11.5099 11.0042 11.5459C10.9678 11.582 10.9238 11.6095 10.8755 11.6266C10.8272 11.6437 10.7756 11.6498 10.7247 11.6446C10.6737 11.6394 10.6245 11.623 10.5806 11.5965C10.3949 11.4795 10.2172 11.3503 10.0486 11.2097L9.91322 11.0986C9.78822 10.9972 9.66739 10.8986 9.54239 10.8048C9.19378 10.5444 8.91739 10.4069 8.6778 10.4187C8.42641 10.4312 8.12225 10.6069 7.73197 10.9153C7.62155 11.0021 7.5035 11.1007 7.38127 11.2035C7.11183 11.4285 6.82016 11.6722 6.54308 11.85C6.49403 11.8816 6.43781 11.9003 6.37961 11.9044C6.32142 11.9085 6.26312 11.8979 6.21011 11.8736C6.1571 11.8492 6.11108 11.8119 6.0763 11.765C6.04153 11.7182 6.01912 11.6633 6.01114 11.6055C5.97641 11.3521 6.02919 11.0354 6.1285 10.7257C6.24183 10.3766 6.40434 10.0455 6.61114 9.74235C7.04169 9.11249 7.7403 8.51874 8.67572 8.55763C9.5785 8.59582 10.2479 9.12499 10.6507 9.70138C10.8535 9.99027 10.9972 10.3007 11.075 10.5896ZM14.7861 10.5896C14.7111 10.866 14.6841 11.1694 14.7743 11.418C14.7919 11.4663 14.8199 11.5101 14.8563 11.5462C14.8928 11.5823 14.9368 11.6099 14.9853 11.627C15.0337 11.6441 15.0853 11.6502 15.1363 11.6449C15.1874 11.6396 15.2367 11.6231 15.2806 11.5965C15.4625 11.4868 15.6424 11.3465 15.8118 11.2097L15.9479 11.0986C16.0729 10.9972 16.1938 10.8986 16.3188 10.8048C16.6667 10.5444 16.9438 10.4069 17.1827 10.4187C17.4347 10.4312 17.7382 10.6069 18.1292 10.9153C18.2389 11.0021 18.357 11.1007 18.4799 11.2035C18.7486 11.4285 19.0403 11.6722 19.3181 11.85C19.3671 11.8814 19.4233 11.9 19.4814 11.904C19.5395 11.9081 19.5977 11.8974 19.6506 11.8731C19.7035 11.8487 19.7494 11.8115 19.7841 11.7647C19.8189 11.718 19.8413 11.6632 19.8493 11.6055C19.8841 11.3521 19.8313 11.0354 19.7327 10.7257C19.6193 10.3766 19.4568 10.0455 19.25 9.74235C18.8195 9.11249 18.1202 8.51874 17.1847 8.55763C16.282 8.59582 15.6132 9.12499 15.2097 9.70138C15.0189 9.97112 14.8757 10.2715 14.7861 10.5896ZM12.9597 21.5278C10.1556 21.5278 7.72502 19.4111 6.53058 16.3194C6.51889 16.2896 6.50732 16.2598 6.49586 16.2298C6.18614 15.4028 6.84864 14.5833 7.73266 14.5833H18.1875C19.0716 14.5833 19.7347 15.4028 19.4236 16.2298C19.4124 16.2598 19.4011 16.2896 19.3896 16.3194C18.1945 19.4111 15.7639 21.5278 12.9597 21.5278ZM18.0125 16.0222C17.8042 16.5278 17.5618 16.9917 17.2938 17.4111H8.62572C8.3837 17.0312 8.17171 16.633 7.99169 16.2201V16.0222H18.0125Z" fill="#24276A"/>
<path fill-rule="evenodd" clip-rule="evenodd" d="M18.0097 18.8C18.1674 18.5952 18.3181 18.3813 18.4611 18.159C18.8494 17.552 19.1718 16.9053 19.4229 16.2299C19.6889 15.5236 19.2438 14.8222 18.557 14.6327C18.4364 14.5996 18.3119 14.583 18.1868 14.5833H7.73266C7.60759 14.5833 7.48309 14.6001 7.36252 14.6333C7.04964 14.7177 6.77903 14.9149 6.6028 15.1868C6.504 15.3399 6.44287 15.5143 6.4244 15.6956C6.40593 15.8769 6.43066 16.06 6.49655 16.2299C6.56674 16.4145 6.6413 16.5974 6.72016 16.7785C6.93544 17.2681 7.18266 17.7299 7.45835 18.159C7.60141 18.3813 7.7521 18.5952 7.90974 18.7993C9.21113 20.4875 10.9931 21.5278 12.9597 21.5278C14.9257 21.5278 16.7084 20.4875 18.0097 18.8ZM18.0125 16.0222C17.8143 16.5055 17.5738 16.9702 17.2938 17.4111H8.62572C8.3837 17.0312 8.17171 16.633 7.99169 16.2202V16.0222H18.0125Z" fill="#24276A"/>
</svg>
