<svg width="27" height="25" viewBox="0 0 27 25" fill="none" xmlns="http://www.w3.org/2000/svg">
<path d="M4.98443 0L3.66078 1.32178L5.63028 3.29034L6.95206 1.96856L4.98349 0H4.98443ZM22.2587 0L20.2892 1.96856L21.6119 3.29034L23.5805 1.32272L22.2587 0ZM13.6211 0.586621C13.3109 0.590381 12.9969 0.608243 12.681 0.646787C12.6716 0.646787 12.6622 0.644907 12.6528 0.646787C8.83977 1.08393 5.80514 4.16463 5.27774 7.96074C4.85658 11.0161 6.11631 13.7865 8.21555 15.5708C9.07424 16.3037 9.65505 17.3093 9.86072 18.4193V24.0599H12.0041C12.3313 24.6211 12.9283 25 13.6211 25C14.314 25 14.9109 24.6211 15.2381 24.0599H17.3815V20.2995H17.4699V19.1827C17.4699 17.8045 18.1862 16.415 19.3501 15.3349C20.9069 13.7762 22.082 11.5623 22.082 9.01929C22.082 4.37521 18.2595 0.543376 13.6211 0.586621ZM13.6211 2.46681C17.2546 2.41605 20.2018 5.39052 20.2018 9.01929C20.2018 10.9879 19.2899 12.7214 18.0273 13.983L18.0574 14.0131C16.8027 15.1701 15.9914 16.7288 15.7636 18.4203H11.6516C11.4448 16.8089 10.7538 15.2493 9.44801 14.1306C7.78686 12.7205 6.79694 10.5958 7.12786 8.19671C7.53868 5.2354 9.94157 2.85413 12.8859 2.52792C13.129 2.49403 13.3739 2.47394 13.6192 2.46775L13.6211 2.46681ZM0.459747 9.01929V10.8995H3.28004V9.01929H0.459747ZM23.9622 9.01929V10.8995H26.7825V9.01929H23.9622ZM5.63028 16.6284L3.66172 18.5961L4.98443 19.9188L6.95112 17.9502L5.63028 16.6284ZM21.6119 16.6284L20.2902 17.9502L22.2578 19.9188L23.5805 18.5961L21.6119 16.6284ZM11.7409 20.3005H15.5013V22.1806H11.7409V20.3005Z" fill="#24276A"/>
</svg>
